# MagicaVoxel @ Ephtracy

# group
o 

# material
mtllib Tile.mtl
usemtl palette

# normals
vn -1 0 0
vn 1 0 0
vn 0 0 1
vn 0 0 -1
vn 0 -1 0
vn 0 1 0

# texcoords
vt 0.537109 0.5
vt 0.654297 0.5
vt 0.724609 0.5

# verts
v -0.5 0 0.5
v -0.5 0 -0.5
v -0.5 0.4 0
v -0.5 0.4 -0.1
v -0.5 0.5 0.2
v -0.5 0.5 0.1
v -0.5 0.5 -0.3
v -0.5 0.5 -0.4
v -0.5 0.6 0.5
v -0.5 0.6 0.2
v -0.5 0.6 0.1
v -0.5 0.6 0
v -0.5 0.6 -0.1
v -0.5 0.6 -0.3
v -0.5 0.6 -0.4
v -0.5 0.6 -0.5
v -0.5 1 0.5
v -0.5 1 -0.5
v 0.5 0 0.5
v 0.5 0 -0.5
v 0.5 0.4 -0.1
v 0.5 0.4 -0.3
v 0.5 0.5 0.4
v 0.5 0.5 0.1
v 0.5 0.5 0
v 0.5 0.5 -0.1
v 0.5 0.5 -0.4
v 0.5 0.5 -0.5
v 0.5 0.6 0.5
v 0.5 0.6 0.4
v 0.5 0.6 0.1
v 0.5 0.6 0
v 0.5 0.6 -0.3
v 0.5 0.6 -0.4
v 0.5 0.7 -0.4
v 0.5 0.7 -0.5
v 0.5 0.8 -0.4
v 0.5 0.8 -0.5
v 0.5 1 0.5
v 0.5 1 -0.5
v -0.5 0 0.5
v -0.5 0.6 0.5
v -0.5 1 0.5
v -0.4 0.5 0.5
v -0.4 0.6 0.5
v -0.4 0.7 0.5
v -0.3 0.6 0.5
v -0.3 0.7 0.5
v -0.2 0.4 0.5
v -0.2 0.5 0.5
v -0.1 0.4 0.5
v -0.1 0.5 0.5
v 0 0.5 0.5
v 0 0.6 0.5
v 0.1 0.5 0.5
v 0.1 0.6 0.5
v 0.2 0.5 0.5
v 0.2 0.6 0.5
v 0.5 0 0.5
v 0.5 0.6 0.5
v 0.5 1 0.5
v -0.5 0 -0.5
v -0.5 0.6 -0.5
v -0.5 1 -0.5
v -0.2 0.5 -0.5
v -0.2 0.6 -0.5
v -0.2 0.9 -0.5
v -0.2 1 -0.5
v -0.1 0.4 -0.5
v -0.1 0.5 -0.5
v 0 0.5 -0.5
v 0 0.6 -0.5
v 0 0.9 -0.5
v 0 1 -0.5
v 0.1 0.5 -0.5
v 0.1 0.6 -0.5
v 0.2 0.4 -0.5
v 0.2 0.6 -0.5
v 0.4 0.5 -0.5
v 0.4 0.6 -0.5
v 0.4 0.7 -0.5
v 0.4 0.8 -0.5
v 0.5 0 -0.5
v 0.5 0.5 -0.5
v 0.5 0.7 -0.5
v 0.5 0.8 -0.5
v 0.5 1 -0.5
v -0.5 0 0.5
v 0.5 0 0.5
v -0.5 0 -0.5
v 0.5 0 -0.5
v -0.5 1 0.5
v 0.5 1 0.5
v -0.1 1 0.4
v 0 1 0.4
v -0.4 1 0.3
v -0.3 1 0.3
v -0.1 1 0.3
v 0 1 0.3
v 0.1 1 0.3
v 0.3 1 0.3
v -0.4 1 0.2
v -0.3 1 0.2
v -0.1 1 0.2
v 0.1 1 0.2
v -0.1 1 0.1
v 0 1 0.1
v 0.2 1 0.1
v 0.3 1 0.1
v 0.2 1 0
v 0.4 1 0
v -0.4 1 -0.1
v -0.3 1 -0.1
v 0 1 -0.1
v 0.1 1 -0.1
v 0.3 1 -0.1
v 0.4 1 -0.1
v 0.2 1 -0.2
v 0.3 1 -0.2
v -0.4 1 -0.3
v -0.3 1 -0.3
v -0.2 1 -0.3
v -0.1 1 -0.3
v 0.1 1 -0.3
v 0.2 1 -0.3
v -0.1 1 -0.4
v 0 1 -0.4
v -0.5 1 -0.5
v -0.2 1 -0.5
v 0 1 -0.5
v 0.5 1 -0.5

# faces
f 3/1/1 2/1/1 1/1/1
f 4/1/1 2/1/1 3/1/1
f 5/1/1 3/1/1 1/1/1
f 6/1/1 3/1/1 5/1/1
f 7/1/1 2/1/1 4/1/1
f 8/1/1 2/1/1 7/1/1
f 9/1/1 5/1/1 1/1/1
f 10/3/1 6/3/1 5/3/1
f 10/1/1 5/1/1 9/1/1
f 11/1/1 3/1/1 6/1/1
f 11/3/1 6/3/1 10/3/1
f 12/3/1 4/3/1 3/3/1
f 12/1/1 3/1/1 11/1/1
f 13/1/1 7/1/1 4/1/1
f 13/3/1 4/3/1 12/3/1
f 14/3/1 8/3/1 7/3/1
f 14/1/1 7/1/1 13/1/1
f 15/1/1 2/1/1 8/1/1
f 15/3/1 8/3/1 14/3/1
f 16/1/1 2/1/1 15/1/1
f 17/3/1 10/3/1 9/3/1
f 17/3/1 11/3/1 10/3/1
f 17/3/1 16/3/1 15/3/1
f 17/3/1 15/3/1 14/3/1
f 17/3/1 13/3/1 12/3/1
f 17/3/1 12/3/1 11/3/1
f 17/3/1 14/3/1 13/3/1
f 18/3/1 16/3/1 17/3/1
f 19/1/2 20/1/2 21/1/2
f 21/1/2 20/1/2 22/1/2
f 19/1/2 21/1/2 23/1/2
f 23/1/2 21/1/2 24/1/2
f 24/1/2 21/1/2 25/1/2
f 21/3/2 22/3/2 26/3/2
f 25/1/2 21/1/2 26/1/2
f 22/1/2 20/1/2 27/1/2
f 27/1/2 20/1/2 28/1/2
f 19/1/2 23/1/2 29/1/2
f 23/3/2 24/3/2 30/3/2
f 29/1/2 23/1/2 30/1/2
f 24/1/2 25/1/2 31/1/2
f 30/3/2 24/3/2 31/3/2
f 25/3/2 26/3/2 32/3/2
f 31/1/2 25/1/2 32/1/2
f 26/3/2 22/3/2 33/3/2
f 32/3/2 26/3/2 33/3/2
f 22/1/2 27/1/2 33/1/2
f 27/3/2 28/3/2 34/3/2
f 33/1/2 27/1/2 34/1/2
f 31/3/2 32/3/2 35/3/2
f 34/3/2 28/3/2 35/3/2
f 33/3/2 34/3/2 35/3/2
f 32/3/2 33/3/2 35/3/2
f 30/3/2 31/3/2 35/3/2
f 29/3/2 30/3/2 35/3/2
f 35/3/2 28/3/2 36/3/2
f 29/3/2 35/3/2 37/3/2
f 35/1/2 36/1/2 37/1/2
f 37/1/2 36/1/2 38/1/2
f 29/3/2 37/3/2 39/3/2
f 37/3/2 38/3/2 39/3/2
f 39/3/2 38/3/2 40/3/2
f 44/1/3 42/1/3 41/1/3
f 45/3/3 43/3/3 42/3/3
f 45/1/3 42/1/3 44/1/3
f 46/3/3 43/3/3 45/3/3
f 47/3/3 45/3/3 44/3/3
f 47/1/3 46/1/3 45/1/3
f 48/3/3 43/3/3 46/3/3
f 48/1/3 46/1/3 47/1/3
f 49/1/3 44/1/3 41/1/3
f 50/3/3 47/3/3 44/3/3
f 50/1/3 44/1/3 49/1/3
f 50/3/3 48/3/3 47/3/3
f 51/1/3 49/1/3 41/1/3
f 51/3/3 50/3/3 49/3/3
f 52/3/3 48/3/3 50/3/3
f 52/3/3 50/3/3 51/3/3
f 53/1/3 52/1/3 51/1/3
f 53/3/3 48/3/3 52/3/3
f 54/3/3 48/3/3 53/3/3
f 55/1/3 53/1/3 51/1/3
f 55/1/3 54/1/3 53/1/3
f 56/3/3 48/3/3 54/3/3
f 56/1/3 54/1/3 55/1/3
f 57/1/3 55/1/3 51/1/3
f 57/3/3 56/3/3 55/3/3
f 58/3/3 48/3/3 56/3/3
f 58/3/3 56/3/3 57/3/3
f 59/1/3 51/1/3 41/1/3
f 59/1/3 57/1/3 51/1/3
f 59/1/3 58/1/3 57/1/3
f 60/3/3 48/3/3 58/3/3
f 60/1/3 58/1/3 59/1/3
f 61/3/3 43/3/3 48/3/3
f 61/3/3 48/3/3 60/3/3
f 62/1/4 63/1/4 65/1/4
f 63/3/4 64/3/4 66/3/4
f 65/1/4 63/1/4 66/1/4
f 66/3/4 64/3/4 67/3/4
f 67/3/4 64/3/4 68/3/4
f 62/1/4 65/1/4 69/1/4
f 65/3/4 66/3/4 70/3/4
f 69/1/4 65/1/4 70/1/4
f 66/3/4 67/3/4 70/3/4
f 69/3/4 70/3/4 71/3/4
f 70/3/4 67/3/4 71/3/4
f 71/3/4 67/3/4 72/3/4
f 67/2/4 68/2/4 73/2/4
f 72/3/4 67/3/4 73/3/4
f 73/2/4 68/2/4 74/2/4
f 71/1/4 72/1/4 75/1/4
f 69/3/4 71/3/4 75/3/4
f 73/3/4 74/3/4 76/3/4
f 75/1/4 72/1/4 76/1/4
f 72/3/4 73/3/4 76/3/4
f 62/1/4 69/1/4 77/1/4
f 69/3/4 75/3/4 77/3/4
f 75/3/4 76/3/4 77/3/4
f 76/3/4 74/3/4 78/3/4
f 77/3/4 76/3/4 78/3/4
f 77/1/4 78/1/4 79/1/4
f 78/3/4 74/3/4 80/3/4
f 79/1/4 78/1/4 80/1/4
f 80/3/4 74/3/4 81/3/4
f 81/3/4 74/3/4 82/3/4
f 62/1/4 77/1/4 83/1/4
f 77/1/4 79/1/4 83/1/4
f 79/3/4 80/3/4 84/3/4
f 83/1/4 79/1/4 84/1/4
f 80/3/4 81/3/4 84/3/4
f 81/1/4 82/1/4 85/1/4
f 84/3/4 81/3/4 85/3/4
f 82/3/4 74/3/4 86/3/4
f 85/1/4 82/1/4 86/1/4
f 86/3/4 74/3/4 87/3/4
f 90/1/5 89/1/5 88/1/5
f 91/1/5 89/1/5 90/1/5
f 92/3/6 93/3/6 94/3/6
f 94/3/6 93/3/6 95/3/6
f 92/3/6 94/3/6 96/3/6
f 96/3/6 94/3/6 97/3/6
f 94/2/6 95/2/6 98/2/6
f 97/3/6 94/3/6 98/3/6
f 95/3/6 93/3/6 99/3/6
f 98/2/6 95/2/6 99/2/6
f 99/3/6 93/3/6 100/3/6
f 100/3/6 93/3/6 101/3/6
f 96/2/6 97/2/6 102/2/6
f 92/3/6 96/3/6 102/3/6
f 97/3/6 98/3/6 103/3/6
f 102/2/6 97/2/6 103/2/6
f 98/3/6 99/3/6 103/3/6
f 99/3/6 100/3/6 103/3/6
f 103/3/6 100/3/6 104/3/6
f 100/2/6 101/2/6 105/2/6
f 104/3/6 100/3/6 105/3/6
f 103/3/6 104/3/6 106/3/6
f 102/3/6 103/3/6 106/3/6
f 104/2/6 105/2/6 106/2/6
f 106/2/6 105/2/6 107/2/6
f 105/2/6 101/2/6 108/2/6
f 107/2/6 105/2/6 108/2/6
f 101/3/6 93/3/6 109/3/6
f 108/2/6 101/2/6 109/2/6
f 107/2/6 108/2/6 110/2/6
f 108/3/6 109/3/6 110/3/6
f 109/3/6 93/3/6 111/3/6
f 110/3/6 109/3/6 111/3/6
f 92/3/6 102/3/6 112/3/6
f 106/3/6 107/3/6 112/3/6
f 102/3/6 106/3/6 112/3/6
f 112/3/6 107/3/6 113/3/6
f 107/2/6 110/2/6 114/2/6
f 113/3/6 107/3/6 114/3/6
f 110/2/6 111/2/6 114/2/6
f 114/2/6 111/2/6 115/2/6
f 115/2/6 111/2/6 116/2/6
f 111/3/6 93/3/6 117/3/6
f 116/2/6 111/2/6 117/2/6
f 115/2/6 116/2/6 118/2/6
f 116/3/6 117/3/6 119/3/6
f 118/2/6 116/2/6 119/2/6
f 112/2/6 113/2/6 120/2/6
f 92/3/6 112/3/6 120/3/6
f 113/3/6 114/3/6 121/3/6
f 120/2/6 113/2/6 121/2/6
f 114/3/6 115/3/6 121/3/6
f 121/3/6 115/3/6 122/3/6
f 122/3/6 115/3/6 123/3/6
f 115/2/6 118/2/6 124/2/6
f 123/3/6 115/3/6 124/3/6
f 118/3/6 119/3/6 125/3/6
f 124/2/6 118/2/6 125/2/6
f 123/3/6 124/3/6 126/3/6
f 122/2/6 123/2/6 126/2/6
f 124/3/6 125/3/6 126/3/6
f 126/3/6 125/3/6 127/3/6
f 92/3/6 120/3/6 128/3/6
f 121/3/6 122/3/6 128/3/6
f 120/3/6 121/3/6 128/3/6
f 126/2/6 127/2/6 129/2/6
f 128/3/6 122/3/6 129/3/6
f 122/2/6 126/2/6 129/2/6
f 127/3/6 125/3/6 130/3/6
f 129/2/6 127/2/6 130/2/6
f 117/3/6 93/3/6 131/3/6
f 130/3/6 125/3/6 131/3/6
f 119/3/6 117/3/6 131/3/6
f 125/3/6 119/3/6 131/3/6
